<svg width="154" height="20" viewBox="0 0 154 20" fill="none" xmlns="http://www.w3.org/2000/svg">
<path d="M15.1673 19H19.5907L19.0819 0.992882H13.1317L9.88256 13.8327L6.75089 0.992882H1.15302L0.644128 19H3.3452L3.58007 4.00712L7.33808 19H11.1744L14.8932 4.55516L15.1673 19ZM30.923 17.3559L32.0191 19H34.9159V9.4484C34.9159 6.18624 32.9195 4.55516 28.9266 4.55516C26.9171 4.55516 25.4817 4.95967 24.6205 5.76868C23.7593 6.5516 23.2504 7.77817 23.0938 9.4484L26.6953 9.879C26.7997 7.76512 27.5043 6.70819 28.8092 6.70819C29.9835 6.70819 30.5707 7.53025 30.5707 9.17438V10.5836L28.1437 11.0534C26.082 11.4187 24.6205 11.9276 23.7593 12.5801C22.8981 13.2064 22.4675 14.1329 22.4675 15.3594C22.4675 16.586 22.8329 17.5647 23.5636 18.2954C24.3204 19 25.3121 19.3523 26.5387 19.3523C28.3655 19.3523 29.8269 18.6868 30.923 17.3559ZM26.343 15.242C26.343 13.911 27.165 13.0629 28.8092 12.6975L30.5707 12.3452V15.8292C29.7878 16.6643 29.044 17.0819 28.3394 17.0819C27.0084 17.0819 26.343 16.4686 26.343 15.242ZM46.9436 19H51.6412L46.0041 10.5445L51.2105 4.90747H48.7444L43.1465 11.0142V0.0142353L38.7621 0.562278V19H43.1465V13.5587H43.1856L43.3422 13.363L46.9436 19ZM65.5373 12.5409V12.0712C65.5373 7.0605 63.4496 4.55516 59.274 4.55516C54.994 4.55516 52.8541 7.02135 52.8541 11.9537C52.8541 14.433 53.3499 16.2859 54.3416 17.5125C55.3594 18.739 56.9644 19.3523 59.1566 19.3523C61.3748 19.3523 62.9276 18.9609 63.8149 18.1779C64.7022 17.395 65.2111 16.325 65.3416 14.968L61.7402 14.8897C61.7402 16.4294 61.0356 17.1993 59.6263 17.1993C58.7912 17.1993 58.1779 16.8731 57.7864 16.2206C57.395 15.5421 57.1993 14.3155 57.1993 12.5409H65.5373ZM61.3096 10.3879H57.2776C57.3819 8.95255 57.5777 7.98695 57.8647 7.4911C58.1779 6.96916 58.6607 6.70819 59.3131 6.70819C59.9917 6.70819 60.4745 7.0083 60.7615 7.60854C61.0747 8.18268 61.2574 9.10913 61.3096 10.3879Z" fill="#D06969"/>
<path d="M89.8755 0.992882H87.2528V14.3808L79.6976 0.992882H75.0784V19H77.7012V5.6121L85.2563 19H89.8755V0.992882ZM110.44 16.8861H104.803V0.992882H100.379V19H110.44V16.8861ZM124.769 11.9537C124.769 7.02135 122.538 4.55516 118.075 4.55516C113.639 4.55516 111.42 7.02135 111.42 11.9537C111.42 16.8861 113.639 19.3523 118.075 19.3523C122.538 19.3523 124.769 16.8861 124.769 11.9537ZM115.766 11.9537C115.766 10.1269 115.922 8.79597 116.235 7.96085C116.549 7.12574 117.162 6.70819 118.075 6.70819C119.015 6.70819 119.628 7.12574 119.915 7.96085C120.228 8.76987 120.385 10.1008 120.385 11.9537C120.385 13.8066 120.228 15.1507 119.915 15.9858C119.628 16.7948 119.015 17.1993 118.075 17.1993C117.162 17.1993 116.549 16.7817 116.235 15.9466C115.922 15.1115 115.766 13.7805 115.766 11.9537ZM139.983 4.90747H137.517L133.915 16.847L130.314 4.90747H125.969L130.51 19H135.403L139.983 4.90747ZM153.795 12.5409V12.0712C153.795 7.0605 151.707 4.55516 147.532 4.55516C143.252 4.55516 141.112 7.02135 141.112 11.9537C141.112 14.433 141.608 16.2859 142.599 17.5125C143.617 18.739 145.222 19.3523 147.414 19.3523C149.633 19.3523 151.185 18.9609 152.073 18.1779C152.96 17.395 153.469 16.325 153.599 14.968L149.998 14.8897C149.998 16.4294 149.293 17.1993 147.884 17.1993C147.049 17.1993 146.436 16.8731 146.044 16.2206C145.653 15.5421 145.457 14.3155 145.457 12.5409H153.795ZM149.567 10.3879H145.535C145.64 8.95255 145.835 7.98695 146.123 7.4911C146.436 6.96916 146.919 6.70819 147.571 6.70819C148.249 6.70819 148.732 7.0083 149.019 7.60854C149.333 8.18268 149.515 9.10913 149.567 10.3879Z" fill="black"/>
</svg>
